<!DOCTYPE svg PUBLIC "-//W3C//DTD SVG 1.1//EN" "http://www.w3.org/Graphics/SVG/1.1/DTD/svg11.dtd">
<!-- Uploaded to: SVG Repo, www.svgrepo.com, Transformed by: SVG Repo Mixer Tools -->
<svg fill="#D5B456" height="800px" width="800px" version="1.1" id="Layer_1" xmlns="http://www.w3.org/2000/svg" xmlns:xlink="http://www.w3.org/1999/xlink" viewBox="0 0 512 512" xml:space="preserve" stroke="#D5B456">
<g id="SVGRepo_bgCarrier" stroke-width="0"/>
<g id="SVGRepo_tracerCarrier" stroke-linecap="round" stroke-linejoin="round"/>
<g id="SVGRepo_iconCarrier"> <g> <g> <path d="M227.132,141.617h-21.787c-4.513,0-8.17,3.658-8.17,8.17s3.657,8.17,8.17,8.17h14.082 c1.121,3.173,4.148,5.447,7.705,5.447c4.513,0,8.17-3.658,8.17-8.17v-5.447C235.302,145.275,231.645,141.617,227.132,141.617z"/> </g> </g> <g> <g> <path d="M306.655,141.617h-21.787c-4.513,0-8.17,3.658-8.17,8.17v5.447c0,4.512,3.657,8.17,8.17,8.17 c3.558,0,6.584-2.273,7.705-5.447h14.082c4.513,0,8.17-3.658,8.17-8.17S311.169,141.617,306.655,141.617z"/> </g> </g> <g> <g> <path d="M276.71,191.11c-4.249-1.509-8.923,0.71-10.434,4.962c-1.543,4.338-5.672,7.252-10.277,7.252s-8.734-2.914-10.277-7.252 c-1.511-4.252-6.186-6.47-10.434-4.962c-4.251,1.512-6.472,6.183-4.96,10.435c3.852,10.838,14.169,18.119,25.672,18.119 s21.82-7.281,25.672-18.119C283.184,197.293,280.963,192.622,276.71,191.11z"/> </g> </g> <g> <g> <path d="M396.386,370.868c6.073-16.271,9.401-33.867,9.401-52.229V149.787C405.787,67.194,338.592,0,256,0 S106.213,67.194,106.213,149.787v168.851c0,18.361,3.328,35.959,9.401,52.228c-34.202,36.06-52.976,83.062-52.976,132.963 c0,4.512,3.657,8.17,8.17,8.17s8.17-3.658,8.17-8.17c0-43.376,15.499-84.355,43.865-116.642 c24.918,48.206,75.25,81.238,133.156,81.238c49.651,0,93.729-24.289,120.998-61.603c0.178-0.217,0.342-0.444,0.496-0.68 c4.336-6.002,8.24-12.335,11.663-18.956c28.366,32.289,43.865,73.267,43.865,116.643c0,4.512,3.657,8.17,8.17,8.17 c4.513,0,8.17-3.658,8.17-8.17C449.362,453.928,430.588,406.927,396.386,370.868z M389.447,318.638 c0,18.061-3.615,35.292-10.145,51.017c-0.014,0.035-0.029,0.07-0.042,0.105c-3.477,8.352-7.775,16.279-12.8,23.677 c-88.926-1.721-164.827-57.845-196.03-136.56c21.39,22.905,51.834,37.251,85.57,37.251c64.572,0,117.106-52.533,117.106-117.106 v-27.234c0-11.703-1.777-23.233-5.144-34.248c-0.102-0.529-0.257-1.039-0.456-1.526c-4.798-14.961-12.589-28.919-23.044-40.961 c-18.283-21.06-43.464-34.93-70.905-39.059c-4.463-0.673-8.625,2.401-9.296,6.864c-0.671,4.462,2.402,8.623,6.864,9.294 c34.586,5.203,63.129,28.225,76.846,58.785h-183.94c13.716-30.56,42.259-53.582,76.846-58.785 c4.462-0.671,7.535-4.832,6.864-9.294c-0.671-4.462-4.823-7.537-9.296-6.864c-27.44,4.129-52.623,18-70.905,39.059 c-10.456,12.042-18.246,26.001-23.044,40.962c-0.199,0.487-0.354,0.997-0.456,1.526c-3.368,11.016-5.144,22.545-5.144,34.248 v27.234c0,61.913,24.133,120.286,67.954,164.365c39.884,40.119,91.583,63.849,147.046,67.838 c-24.393,26.341-59.249,42.86-97.896,42.86c-55.48,0-103.155-34.036-123.258-82.321c-0.015-0.038-0.031-0.075-0.047-0.113 c-6.53-15.724-10.143-32.953-10.143-51.013V149.787C122.553,76.204,182.417,16.34,256,16.34s133.447,59.864,133.447,133.447 V318.638z M155.234,177.021v-27.234c0-8.412,1.088-16.624,3.097-24.511h195.338c2.009,7.887,3.097,16.099,3.097,24.511v27.234 c0,55.563-45.203,100.766-100.766,100.766C200.437,277.787,155.234,232.584,155.234,177.021z"/> </g> </g> <g> <g> <circle cx="302.298" cy="340.426" r="8.17"/> </g> </g> <g> <g> <circle cx="334.979" cy="307.745" r="8.17"/> </g> </g> </g>
</svg>