<svg xmlns="http://www.w3.org/2000/svg" width="53" height="65.27" viewBox="0 0 53 65.27"><title>cart</title><path d="M48.5,12.27H39.79a13.33,13.33,0,0,0-26.58,0H4.5A4.51,4.51,0,0,0,0,16.77v44a4.51,4.51,0,0,0,4.5,4.5h44a4.51,4.51,0,0,0,4.5-4.5v-44A4.51,4.51,0,0,0,48.5,12.27ZM26.5,3a10.35,10.35,0,0,1,10.28,9.27H16.21A10.36,10.36,0,0,1,26.5,3ZM50,60.77a1.5,1.5,0,0,1-1.5,1.5H4.5A1.5,1.5,0,0,1,3,60.77v-44a1.5,1.5,0,0,1,1.5-1.5h44a1.5,1.5,0,0,1,1.5,1.5Z"/><path d="M38.34,24.79a1.5,1.5,0,0,0-1.5,1.5,10.34,10.34,0,0,1-20.68,0,1.5,1.5,0,0,0-3,0,13.34,13.34,0,0,0,26.68,0A1.5,1.5,0,0,0,38.34,24.79Z"/></svg>