<svg xmlns="http://www.w3.org/2000/svg" width="384.9" height="506.98" viewBox="0 0 384.9 506.98"><title>Icon-04-global</title><path d="M221.68,276.17a6,6,0,0,1-5.44-3.47l-46.11-99.07A218.65,218.65,0,0,1,163,6.45,6,6,0,0,1,174,6l87.43,187.84a6,6,0,1,1-10.88,5.07l-81-174A205.1,205.1,0,0,0,181,168.57l46.1,99.06a6,6,0,0,1-2.9,8,5.86,5.86,0,0,1-2.53.57Z" transform="translate(-63.55 -2.51)" fill="#c6ac73"/><path d="M339.4,381.52a6,6,0,0,1-5.44-3.47l-49-105.35a6,6,0,1,1,10.88-5.07l49,105.35a6,6,0,0,1-2.91,8A5.86,5.86,0,0,1,339.4,381.52Z" transform="translate(-63.55 -2.51)" fill="#c6ac73"/><path d="M306.59,458.6a6,6,0,0,1-5.44-3.46L250.58,346.48a6,6,0,1,1,10.88-5.06L312,450.07a6,6,0,0,1-5.44,8.53Z" transform="translate(-63.55 -2.51)" fill="#c6ac73"/><path d="M374,478.35a43.37,43.37,0,1,1,39.25-61.66h0A43.35,43.35,0,0,1,374,478.35Zm-.12-74.72a31.36,31.36,0,1,0,28.49,18.12h0a31.4,31.4,0,0,0-28.49-18.13Z" transform="translate(-63.55 -2.51)" fill="#c6ac73"/><path d="M374.07,509.49A74.5,74.5,0,1,1,441.5,403.55h0a74.49,74.49,0,0,1-67.43,105.94Zm-.21-137a62.5,62.5,0,1,0,56.76,36.13,62.1,62.1,0,0,0-56.76-36.13Z" transform="translate(-63.55 -2.51)" fill="#c6ac73"/><path d="M205.45,458.62a6,6,0,0,1-5.44-8.54l131-281.5a205.13,205.13,0,0,0,11.43-143.7L178.08,378.06A6,6,0,0,1,167.2,373L338,6a6,6,0,0,1,11.07.47,218.63,218.63,0,0,1-7.17,167.17l-131,281.51a6,6,0,0,1-5.44,3.47Z" transform="translate(-63.55 -2.51)" fill="#c6ac73"/><path d="M138,478.35a43.35,43.35,0,0,1-39.25-61.66h0A43.37,43.37,0,1,1,138,478.35Zm-28.37-56.6a31.37,31.37,0,1,0,17.69-16.23,31.42,31.42,0,0,0-17.69,16.23Z" transform="translate(-63.55 -2.51)" fill="#c6ac73"/><path d="M138,509.49A74.51,74.51,0,0,1,70.54,403.55h0A74.5,74.5,0,1,1,138,509.49ZM81.42,408.61a62.51,62.51,0,1,0,83-30.29,62.14,62.14,0,0,0-83,30.29Z" transform="translate(-63.55 -2.51)" fill="#c6ac73"/><path d="M259,277a6,6,0,0,1-4.24-1.76l-6-6a6,6,0,1,1,8.48-8.48l6,6A6,6,0,0,1,259,277Z" transform="translate(-63.55 -2.51)" fill="#c6ac73"/></svg>