<svg xmlns="http://www.w3.org/2000/svg" width="510.23" height="510" viewBox="0 0 510.23 510"><title>Icon-02-global</title><path d="M409,511a6,6,0,0,1-6-6V7a6,6,0,0,1,12,0V505A6,6,0,0,1,409,511Z" transform="translate(-0.89 -1)" fill="#c6ac73"/><path d="M439.87,510.79h-48a38.27,38.27,0,0,1-38.23-38.22V39.24A38.27,38.27,0,0,1,391.9,1h48a6,6,0,0,1,6,6V504.79a6,6,0,0,1-6,6ZM391.9,13a26.26,26.26,0,0,0-26.23,26.23V472.57a26.26,26.26,0,0,0,26.23,26.22h42V13Z" transform="translate(-0.89 -1)" fill="#c6ac73"/><path d="M505.11,13h-66a6,6,0,0,1,0-12h66a6,6,0,0,1,0,12Z" transform="translate(-0.89 -1)" fill="#c6ac73"/><path d="M505.11,73h-66a6,6,0,0,1,0-12h66a6,6,0,0,1,0,12Z" transform="translate(-0.89 -1)" fill="#c6ac73"/><path d="M505.11,141h-66a6,6,0,0,1,0-12h66a6,6,0,0,1,0,12Z" transform="translate(-0.89 -1)" fill="#c6ac73"/><path d="M505.11,210h-66a6,6,0,0,1,0-12h66a6,6,0,0,1,0,12Z" transform="translate(-0.89 -1)" fill="#c6ac73"/><path d="M505.11,278h-66a6,6,0,0,1,0-12h66a6,6,0,0,1,0,12Z" transform="translate(-0.89 -1)" fill="#c6ac73"/><path d="M505.11,347h-66a6,6,0,0,1,0-12h66a6,6,0,0,1,0,12Z" transform="translate(-0.89 -1)" fill="#c6ac73"/><path d="M505.11,415h-66a6,6,0,0,1,0-12h66a6,6,0,0,1,0,12Z" transform="translate(-0.89 -1)" fill="#c6ac73"/><path d="M505.11,463h-66a6,6,0,0,1,0-12h66a6,6,0,0,1,0,12Z" transform="translate(-0.89 -1)" fill="#c6ac73"/><path d="M505.11,511h-66a6,6,0,0,1,0-12h66a6,6,0,0,1,0,12Z" transform="translate(-0.89 -1)" fill="#c6ac73"/><path d="M137,310a6,6,0,0,1-5.44-3.47L92.08,221.76A187.8,187.8,0,0,1,85.92,78.12,6,6,0,0,1,97,77.65l74.77,160.64a6,6,0,0,1-10.88,5.07L92.6,96.66A174.53,174.53,0,0,0,103,216.7l39.43,84.71A6,6,0,0,1,137,310Z" transform="translate(-0.89 -1)" fill="#c6ac73"/><path d="M237.63,400a6,6,0,0,1-5.45-3.47l-41.93-90.09a6,6,0,0,1,10.88-5.07l41.93,90.1a6,6,0,0,1-5.43,8.53Z" transform="translate(-0.89 -1)" fill="#c6ac73"/><path d="M209.57,466a6,6,0,0,1-5.45-3.47l-43.24-92.92a6,6,0,0,1,10.88-5.07L215,457.43a6,6,0,0,1-2.9,8A5.86,5.86,0,0,1,209.57,466Z" transform="translate(-0.89 -1)" fill="#c6ac73"/><path d="M267.19,482.88a38,38,0,1,1,16-3.57A38,38,0,0,1,267.19,482.88Zm0-63.95a26,26,0,1,0,23.55,15h0a26,26,0,0,0-23.54-15Z" transform="translate(-0.89 -1)" fill="#c6ac73"/><path d="M267.27,509.48a64.58,64.58,0,1,1,27.15-6,64.65,64.65,0,0,1-27.15,6Zm-.13-117.19a52.71,52.71,0,1,0,18.05,3.21A52.37,52.37,0,0,0,267.14,392.29Z" transform="translate(-0.89 -1)" fill="#c6ac73"/><path d="M123.75,466a6,6,0,0,1-5.44-8.53l112-240.74a174.5,174.5,0,0,0,10.36-120L101.13,396.58a6,6,0,1,1-10.88-5.06L236.32,77.67a6,6,0,0,1,11.08.47,187.83,187.83,0,0,1-6.17,143.63l-112,240.74a6,6,0,0,1-5.45,3.47Z" transform="translate(-0.89 -1)" fill="#c6ac73"/><path d="M65.41,482.85a37.95,37.95,0,0,1-34.36-54h0a38,38,0,1,1,34.36,54ZM41.93,434a26,26,0,1,0,34.49-12.58A26,26,0,0,0,41.93,434Z" transform="translate(-0.89 -1)" fill="#c6ac73"/><path d="M65.37,509.48A64.58,64.58,0,1,1,124,472.15,64.11,64.11,0,0,1,65.37,509.48Zm.13-117.19a52.64,52.64,0,1,0,22.15,4.94,52.76,52.76,0,0,0-22.15-4.94Z" transform="translate(-0.89 -1)" fill="#c6ac73"/><path d="M168.88,310.67a6,6,0,0,1-4.24-1.76l-5.13-5.13a6,6,0,1,1,8.49-8.49l5.13,5.14a6,6,0,0,1-4.25,10.24Z" transform="translate(-0.89 -1)" fill="#c6ac73"/></svg>