<svg xmlns="http://www.w3.org/2000/svg" width="510.02" height="470.02" viewBox="0 0 510.02 470.02"><title>Icon-03-global</title><path d="M406.13,431.07H105.4A104.53,104.53,0,0,1,1,326.66V260.22a6,6,0,0,1,6-6H504.54a6,6,0,0,1,6,6v66.44A104.53,104.53,0,0,1,406.13,431.07ZM13,266.22v60.44a92.51,92.51,0,0,0,92.41,92.41H406.13a92.51,92.51,0,0,0,92.41-92.41V266.22Z" transform="translate(-0.99 -21)" fill="#c6ac73"/><path d="M408.77,491h-306a6,6,0,0,1-5.89-7.18l12-59.95a6,6,0,0,1,5.89-4.82h282a6,6,0,0,1,5.88,4.82l12,59.95a6,6,0,0,1-5.89,7.18ZM110.09,479H401.44l-9.59-47.95H119.68Z" transform="translate(-0.99 -21)" fill="#c6ac73"/><path d="M505,327H7a6,6,0,1,1,0-12H505a6,6,0,0,1,0,12Z" transform="translate(-0.99 -21)" fill="#c6ac73"/><path d="M470,267a6,6,0,0,1-6-6V250.29c0-19.51-25.79-41.29-60.32-41.29H338a6,6,0,0,1,0-12c32,0,58-17.12,58-38.19S370.52,121,338,121H305a6.06,6.06,0,0,1-6-6v-4.17C299,73.4,318.31,56,351.16,33H323.41C280.59,33,181,40,181,104.77v9.79a6,6,0,0,1-6,6c-34,0-60.61,16.86-60.61,38.39a6.34,6.34,0,0,1-.11,1.16C115.22,180.86,141,197,173.81,197a6,6,0,0,1,0,12.05H108.13C74.27,209,48,232,48,251.91v9a6,6,0,0,1-12,0v-9c0-13.76,8-27.71,21.81-38.34S89.64,197,108.13,197h18.7c-15.13-9-24.56-22.66-24.56-38a6.39,6.39,0,0,1,.15-1.4c.94-26.64,28.58-46.92,66.58-48.87v-3.94C169,51.5,225.29,21,323.4,21h47.44a6,6,0,0,1,3.33,11c-40,26.66-62.4,42-63.14,77h27c39.25,0,70,21.81,70,49.72h0c0,15.45-9.27,29.24-24.11,38.24h19.79c38.53,0,72.32,24.88,72.32,53.3V261A6,6,0,0,1,470,267Z" transform="translate(-0.99 -21)" fill="#c6ac73"/></svg>