<svg xmlns="http://www.w3.org/2000/svg" width="464.28" height="510.01" viewBox="0 0 464.28 510.01"><title>Icon-01-global</title><path d="M191.14,451h-161a6,6,0,1,1,0-12h161a6,6,0,0,1,0,12Z" transform="translate(-23.86 -1)" fill="#c6ac73"/><path d="M269.45,234.5H29.86a6,6,0,0,1,0-12H269.45a6,6,0,0,1,0,12Z" transform="translate(-23.86 -1)" fill="#c6ac73"/><path d="M239.38,510.2H59.93a36.11,36.11,0,0,1-36.07-36.07V198.67a6,6,0,0,1,1-3.33l30.07-45.06a6,6,0,0,1,5-2.67H239.38a6,6,0,0,1,5,2.67l30.07,45.06a6,6,0,0,1,1,3.33v131.7a6,6,0,0,1-12,0V200.49l-27.28-40.88h-173L35.86,200.49V474.13A24.1,24.1,0,0,0,59.93,498.2H239.38a6,6,0,0,1,0,12Z" transform="translate(-23.86 -1)" fill="#c6ac73"/><path d="M209.55,159.62H89.76a6,6,0,0,1-6-6V114.56a6,6,0,0,1,6-6H209.55a6,6,0,0,1,6,6v39.06A6,6,0,0,1,209.55,159.62Zm-113.79-12H203.55V120.56H95.76Z" transform="translate(-23.86 -1)" fill="#c6ac73"/><path d="M179.6,120.56H119.71a6,6,0,0,1-6-6V36.62a6,6,0,0,1,6-6H179.6a6,6,0,0,1,6,6v77.94A6,6,0,0,1,179.6,120.56Zm-53.89-12H173.6V42.62H125.71Z" transform="translate(-23.86 -1)" fill="#c6ac73"/><path d="M268.89,88.05a21,21,0,0,1-21-21A24,24,0,0,0,224,43H74.14A6.14,6.14,0,0,1,68,37V7a6.11,6.11,0,0,1,6.14-6H224a66,66,0,0,1,65.91,66A21,21,0,0,1,268.89,88.05ZM80,31H224A36,36,0,0,1,259.9,67a9,9,0,1,0,18,0A54,54,0,0,0,224,13H80Z" transform="translate(-23.86 -1)" fill="#c6ac73"/><path d="M423.84,511H249.24a64,64,0,0,1-64-64V366.34a6,6,0,0,1,6-6h290.5a6,6,0,0,1,6,6v80.71A64,64,0,0,1,423.84,511ZM197.29,372.34v74.71a52,52,0,0,0,52,52h174.6a52,52,0,0,0,52-52V372.34Z" transform="translate(-23.86 -1)" fill="#c6ac73"/><path d="M454.56,372.34h-236a6,6,0,0,1-6-6v-36a6,6,0,0,1,6-6h236a6,6,0,0,1,6,6v36A6,6,0,0,1,454.56,372.34Zm-230-12h224v-24h-224Z" transform="translate(-23.86 -1)" fill="#c6ac73"/><path d="M482.14,415h-291a6,6,0,0,1,0-12h291a6,6,0,0,1,0,12Z" transform="translate(-23.86 -1)" fill="#c6ac73"/><path d="M406.92,336.37H272.15a6,6,0,0,1-6-6V318.91a50.59,50.59,0,0,1,50.53-50.53h3.65a48,48,0,0,1,44.25-29.95H377a6,6,0,0,1,4.24,10.24,45.39,45.39,0,0,0-11.65,20.22,50.6,50.6,0,0,1,43.36,50v11.46a6,6,0,0,1-6,6Zm-128.77-12H400.92v-5.46a38.57,38.57,0,0,0-38.53-38.53,6,6,0,0,1-4.49-2,6,6,0,0,1-1.47-4.71,57.45,57.45,0,0,1,8.19-23.22h0a35.83,35.83,0,0,0-34.22,25.64,6,6,0,0,1-5.76,4.31h-7.92a38.58,38.58,0,0,0-38.53,38.53v5.46Z" transform="translate(-23.86 -1)" fill="#c6ac73"/><path d="M143.2,348.91c-28.58,0-51-13.17-51-30s22.38-30,51-30,51,13.17,51,30S171.78,348.91,143.2,348.91Zm0-48c-23,0-39,9.48-39,18s16,18,39,18,39-9.47,39-18S166.17,301,143.2,301Z" transform="translate(-23.86 -1)" fill="#c6ac73"/></svg>