<svg width="411" height="117" viewBox="0 0 411 117" fill="none" xmlns="http://www.w3.org/2000/svg">
<g clip-path="url(#clip0_6133_132)">
<path d="M100.681 0L45.4571 81.3894C44.6131 75.2581 41.2369 69.4875 35.6904 65.7607C31.9525 63.2361 27.4912 61.7934 22.9092 61.7934C15.3129 61.7934 8.19881 65.5203 3.97861 71.7717C0.481875 76.9412 -0.723896 82.9522 0.361299 88.9633C1.56707 94.9743 4.94323 100.144 10.0075 103.51C13.7454 106.035 18.2067 107.477 22.7886 107.477C30.385 107.477 37.4991 103.75 41.7193 97.4989L99.3551 12.6232C102.008 8.65589 102.611 1.32243 100.681 0ZM22.7886 101.466C19.4125 101.466 16.1569 100.504 13.3836 98.5809C9.64574 96.0563 7.11362 92.2092 6.26958 87.7611C5.42554 83.3129 6.39016 78.8647 8.92228 75.1379C12.0573 70.4493 17.2421 67.8044 22.9092 67.8044C26.2854 67.8044 29.541 68.7662 32.3142 70.6897C40.0312 75.8592 42.081 86.3184 36.7756 94.0125C33.6406 98.7011 28.4558 101.466 22.7886 101.466Z" fill="#C6AC73"/>
<path d="M107.796 71.8919C103.576 65.6405 96.4617 61.9136 88.8653 61.9136C84.2834 61.9136 79.8221 63.2361 76.0842 65.8809C70.5376 69.6078 67.1615 75.3784 66.3174 81.5096L11.0931 0C9.04329 1.32243 9.64618 8.65589 12.2989 12.5029L69.9347 97.3787C74.1549 103.63 81.269 107.357 88.8653 107.357C93.4473 107.357 97.9086 106.035 101.647 103.39C106.711 100.024 110.087 94.8541 111.293 88.8431C112.498 82.9522 111.172 76.9412 107.796 71.8919ZM105.505 87.7611C104.661 92.2092 102.129 95.9361 98.3909 98.4607C95.6177 100.384 92.3621 101.346 88.9859 101.346C83.3188 101.346 78.134 98.5809 74.999 94.0125C69.8142 86.3184 71.864 75.8592 79.4603 70.6897C82.2336 68.7662 85.4892 67.8044 88.8653 67.8044C94.5325 67.8044 99.7173 70.5695 102.852 75.1379C105.384 78.8647 106.349 83.4331 105.505 87.7611Z" fill="#C6AC73"/>
<path d="M116.96 108.439C110.69 108.439 104.42 106.275 99.4761 102.308C98.1498 101.346 98.0292 99.4225 98.9938 98.1C100.079 96.7776 101.888 96.6574 103.214 97.6192C107.193 100.745 111.896 102.428 116.96 102.428C118.648 102.428 119.974 103.75 119.974 105.433C119.854 107.117 118.527 108.439 116.96 108.439Z" fill="white"/>
<path d="M81.8719 0L55.8273 38.3504L29.7826 0C27.8534 1.32243 28.4562 8.53567 30.9884 12.3827L55.8273 48.9298L80.6661 12.3827C83.3188 8.53567 83.9217 1.32243 81.8719 0Z" fill="white"/>
<path d="M64.7499 0L55.9478 12.9838L47.0251 0C45.0958 1.32243 45.6987 8.65589 48.3514 12.5029L55.9478 23.6835L63.5441 12.5029C66.0762 8.65589 66.6791 1.32243 64.7499 0Z" fill="white"/>
</g>
<path d="M147.176 84V32.16C147.176 29.28 146.76 26.976 145.928 25.248C145.16 23.456 143.336 22.56 140.456 22.56H138.536V20.64H163.496C165.992 20.64 168.712 20.832 171.656 21.216C174.664 21.6 177.512 22.368 180.2 23.52C182.888 24.608 185.096 26.272 186.824 28.512C188.552 30.752 189.416 33.728 189.416 37.44C189.416 40.32 188.424 43.008 186.44 45.504C184.456 47.936 181.288 49.888 176.936 51.36C181.096 52 184.328 53.056 186.632 54.528C188.936 55.936 190.536 57.664 191.432 59.712C192.328 61.76 192.776 64.096 192.776 66.72C192.776 70.304 191.976 73.248 190.376 75.552C188.776 77.792 186.664 79.52 184.04 80.736C181.48 81.952 178.632 82.816 175.496 83.328C172.424 83.776 169.384 84 166.376 84H147.176ZM155.816 49.92H164.936C167.496 49.92 169.928 49.44 172.232 48.48C174.6 47.52 176.52 46.08 177.992 44.16C179.528 42.24 180.296 39.84 180.296 36.96C180.296 33.888 179.368 31.392 177.512 29.472C175.72 27.552 173.48 26.176 170.792 25.344C168.168 24.448 165.576 24 163.016 24C161.8 24 160.52 24.096 159.176 24.288C157.896 24.48 156.776 24.704 155.816 24.96V49.92ZM164.936 80.64C170.76 80.64 175.24 79.488 178.376 77.184C181.576 74.88 183.176 71.552 183.176 67.2C183.176 62.848 181.64 59.52 178.568 57.216C175.496 54.912 170.952 53.76 164.936 53.76H155.816V79.296C158.888 80.192 161.928 80.64 164.936 80.64ZM221.199 84.96C216.719 84.96 212.975 83.904 209.967 81.792C207.023 79.68 204.783 76.832 203.247 73.248C201.775 69.664 201.039 65.728 201.039 61.44C201.039 57.088 201.807 53.152 203.343 49.632C204.879 46.048 207.087 43.2 209.967 41.088C212.847 38.976 216.271 37.92 220.239 37.92C226.767 37.92 231.599 39.744 234.735 43.392C237.871 47.04 239.439 52.256 239.439 59.04L239.247 62.88H210.159C210.159 68.128 211.279 72.48 213.519 75.936C215.823 79.392 219.023 81.12 223.119 81.12C226.255 81.12 228.847 80.448 230.895 79.104C233.007 77.76 234.895 75.872 236.559 73.44L238.479 74.88C236.303 78.528 233.775 81.12 230.895 82.656C228.079 84.192 224.847 84.96 221.199 84.96ZM210.159 59.04H230.319C230.319 53.472 229.487 49.216 227.823 46.272C226.159 43.264 223.631 41.76 220.239 41.76C218.319 41.76 216.591 42.528 215.055 44.064C213.583 45.536 212.399 47.584 211.503 50.208C210.607 52.768 210.159 55.712 210.159 59.04ZM250.89 84V32.16C250.89 29.28 250.474 26.976 249.642 25.248C248.874 23.456 247.05 22.56 244.17 22.56H242.25V20.64H250.89C253.13 20.64 254.858 20.928 256.074 21.504C257.354 22.08 258.25 23.2 258.762 24.864C259.274 26.528 259.53 28.96 259.53 32.16V84H250.89ZM276.924 103.2V100.32C279.868 100.32 282.364 99.648 284.412 98.304C286.524 97.024 288.348 94.336 289.884 90.24L291.804 84.96L276.444 47.52C275.484 45.088 274.076 43.264 272.22 42.048C270.428 40.832 268.316 40.096 265.884 39.84V37.92H274.044C276.924 37.92 279.292 38.592 281.148 39.936C283.068 41.28 284.54 43.168 285.564 45.6L296.508 72.192L308.604 38.88H313.404L294.684 90.24C293.404 93.76 292.028 96.448 290.556 98.304C289.148 100.16 287.548 101.44 285.756 102.144C284.028 102.848 282.044 103.2 279.804 103.2H276.924ZM338.14 84.96C334.3 84.96 331.164 84.64 328.732 84C326.3 83.296 324.476 82.336 323.26 81.12C322.044 79.904 321.34 78.528 321.148 76.992C320.956 75.456 320.86 73.472 320.86 71.04H322.78C323.292 74.176 324.636 76.64 326.812 78.432C328.988 80.224 332.124 81.12 336.22 81.12C339.868 81.12 342.524 80.48 344.188 79.2C345.916 77.92 346.78 76.32 346.78 74.4C346.78 72.48 346.044 70.88 344.572 69.6C343.164 68.256 341.02 66.976 338.14 65.76L332.38 63.36C328.732 61.888 325.884 60.16 323.836 58.176C321.852 56.128 320.86 53.536 320.86 50.4C320.86 46.368 322.364 43.296 325.372 41.184C328.38 39.008 332.156 37.92 336.7 37.92C340.348 37.92 343.356 38.272 345.724 38.976C348.092 39.616 349.884 40.544 351.1 41.76C352.316 42.976 353.02 44.352 353.212 45.888C353.404 47.424 353.5 49.408 353.5 51.84H351.58C351.068 48.704 349.724 46.24 347.548 44.448C345.436 42.656 342.46 41.76 338.62 41.76C335.484 41.76 333.084 42.4 331.42 43.68C329.82 44.96 329.02 46.56 329.02 48.48C329.02 50.144 329.692 51.68 331.036 53.088C332.38 54.432 334.268 55.616 336.7 56.64L342.46 59.04C346.556 60.704 349.66 62.528 351.772 64.512C353.884 66.496 354.94 69.152 354.94 72.48C354.94 76.512 353.34 79.616 350.14 81.792C346.94 83.904 342.94 84.96 338.14 84.96ZM365.912 84V32.16C365.912 29.28 365.496 26.976 364.664 25.248C363.896 23.456 362.072 22.56 359.192 22.56H357.272V20.64H365.912C368.152 20.64 369.88 20.928 371.096 21.504C372.376 22.08 373.272 23.2 373.784 24.864C374.296 26.528 374.552 28.96 374.552 32.16V42.72C375.768 41.504 377.432 40.416 379.544 39.456C381.656 38.432 384.152 37.92 387.032 37.92C389.784 37.92 392.376 38.4 394.808 39.36C397.304 40.32 399.352 42.048 400.952 44.544C402.552 46.976 403.352 50.528 403.352 55.2V84H394.712V55.2C394.712 52 394.2 49.472 393.176 47.616C392.152 45.696 390.84 44.32 389.24 43.488C387.64 42.656 385.944 42.24 384.152 42.24C382.232 42.24 380.44 42.752 378.776 43.776C377.176 44.8 375.768 45.984 374.552 47.328V84H365.912Z" fill="white"/>
<defs>
<clipPath id="clip0_6133_132">
<rect width="119.854" height="108.439" fill="white"/>
</clipPath>
</defs>
</svg>
